<?xml version="1.0" standalone="no"?>
<!DOCTYPE svg PUBLIC "-//W3C//DTD SVG 20010904//EN"
 "http://www.w3.org/TR/2001/REC-SVG-20010904/DTD/svg10.dtd">
<svg version="1.0" xmlns="http://www.w3.org/2000/svg"
 width="1200.000000pt" height="1200.000000pt" viewBox="0 0 1200.000000 1200.000000"
 preserveAspectRatio="xMidYMid meet">

<g transform="translate(0.000000,1200.000000) scale(0.100000,-0.100000)"
fill="#000000" stroke="none">
<path d="M5455 7059 c-428 -40 -845 -173 -1237 -395 -74 -42 -81 -44 -161 -44
-110 0 -437 -16 -712 -35 -232 -17 -465 -42 -403 -44 103 -3 1246 -73 1583
-96 344 -24 1100 -91 1145 -101 14 -3 22 -3 19 0 -3 3 -95 33 -205 66 -551
168 -725 238 -699 280 23 37 273 133 445 171 292 63 701 69 1035 13 196 -33
479 -115 680 -198 203 -84 532 -263 579 -315 18 -19 30 -21 168 -21 569 0
1198 -118 1641 -307 71 -30 130 -53 132 -51 2 2 -7 27 -20 55 -36 79 -94 128
-230 194 -333 161 -839 274 -1495 334 l-185 17 -125 61 c-193 92 -265 125
-395 177 -318 127 -649 209 -964 240 -120 12 -466 11 -596 -1z"/>
<path d="M5869 6106 c12 -18 21 -36 21 -40 0 -3 -92 -6 -205 -6 l-205 0 0
-550 0 -550 100 0 100 0 0 465 0 465 348 0 c257 0 351 -3 360 -12 36 -36 -13
-108 -73 -108 l-35 0 0 -158 0 -159 50 -71 51 -72 124 0 c69 0 125 3 125 6 0
3 -44 65 -98 137 -154 208 -147 196 -125 204 53 19 124 75 148 118 33 55 43
148 25 215 -15 57 -80 124 -135 139 -25 7 -145 11 -318 11 l-279 0 21 -34z"/>
<path d="M6700 5925 c0 -74 2 -135 6 -135 3 0 19 14 37 30 46 44 82 50 280 50
l178 0 -3 -47 -3 -48 -210 -5 c-115 -3 -218 -9 -227 -13 -44 -22 -53 -56 -53
-192 0 -118 2 -133 23 -167 14 -22 41 -46 70 -60 46 -22 55 -23 317 -23 l270
0 3 103 3 102 -246 0 -245 0 0 35 0 35 217 2 217 3 47 190 c26 105 48 209 48
233 l1 42 -365 0 -365 0 0 -135z"/>
<path d="M7530 5685 l0 -375 135 0 135 0 0 125 c0 102 -3 127 -15 131 -12 5
-15 30 -14 143 0 109 3 132 12 118 7 -10 89 -129 183 -265 l170 -247 147 -3
147 -3 0 281 0 280 115 0 115 0 2 -277 3 -278 98 -3 97 -3 0 376 0 375 -330 0
-330 0 0 -103 c0 -91 2 -106 20 -122 18 -16 20 -31 20 -157 0 -76 -3 -138 -7
-138 -5 0 -87 116 -183 258 l-176 257 -172 3 -172 2 0 -375z"/>
<path d="M2943 6043 c15 -2 27 -8 27 -13 0 -7 -25 -6 -59 2 -13 4 -51 -14 -51
-23 0 -6 -4 -8 -9 -5 -13 9 -54 -41 -45 -55 4 -8 8 -26 9 -42 1 -27 0 -28 -12
-11 -12 16 -13 16 -13 -10 0 -15 -4 -25 -10 -21 -5 3 -11 0 -12 -7 0 -7 -2
-17 -3 -23 -2 -5 -4 -19 -5 -30 -2 -17 -3 -17 -10 5 -4 14 -8 -103 -7 -260 0
-157 3 -258 7 -225 l6 60 4 -50 5 -50 78 -3 77 -3 0 121 0 120 220 0 220 0 0
-120 0 -121 97 3 c66 2 98 7 101 16 2 8 -2 10 -14 5 -12 -4 -15 -3 -10 5 4 7
2 12 -6 12 -10 0 -10 2 1 9 11 7 11 15 1 46 -8 23 -13 113 -14 250 -1 194 -3
215 -20 234 -20 22 -9 30 12 9 17 -17 15 -2 -4 38 -9 19 -21 34 -26 34 -5 0
-7 4 -4 8 3 5 -9 22 -27 38 l-32 29 28 -31 c37 -41 18 -54 -21 -14 -17 16 -38
30 -47 30 -12 0 -16 6 -12 20 5 21 -8 29 -15 8 -3 -7 -10 -8 -17 -4 -11 7 -11
10 0 17 8 5 -35 9 -106 9 -81 0 -115 -3 -105 -10 13 -8 12 -10 -2 -10 -10 0
-18 5 -18 10 0 6 -37 9 -92 9 -51 -1 -81 -4 -65 -6z m367 -10 c0 -9 -155 -11
-165 -2 -3 4 33 7 80 8 47 1 85 -2 85 -6z m-463 -71 c-9 -2 -15 -8 -12 -13 3
-5 -2 -6 -11 -2 -16 6 -16 7 1 19 10 7 23 10 29 6 7 -4 4 -8 -7 -10z m15 -30
c-7 -2 -13 -20 -13 -40 -1 -26 -3 -30 -6 -13 -7 34 5 73 19 65 9 -6 9 -9 0
-12z m28 0 c0 -5 -7 -17 -15 -28 -14 -18 -14 -17 -4 9 12 27 19 34 19 19z
m308 -19 c-15 -2 -42 -2 -60 0 -18 2 -6 4 27 4 33 0 48 -2 33 -4z m138 -60
c-3 -8 -2 -12 3 -9 14 9 18 -15 13 -86 l-4 -68 -127 -1 c-78 -1 -117 -4 -101
-9 21 -7 22 -8 4 -9 -11 -1 -25 4 -31 10 -6 6 -41 9 -87 7 -42 -2 -76 1 -76 5
0 5 -4 5 -10 2 -6 -3 -11 6 -12 22 -2 46 3 77 14 84 5 4 3 9 -6 12 -9 4 -16 1
-17 -6 0 -9 -2 -9 -6 0 -2 7 2 19 10 27 11 11 17 12 27 3 10 -10 12 -7 7 10
-3 14 1 27 12 35 14 11 15 11 6 -2 -6 -9 -3 -9 6 2 14 15 39 18 170 20 136 3
157 1 182 -16 17 -11 26 -24 23 -33z m71 2 c0 -8 -4 -12 -9 -9 -5 3 -6 10 -3
15 9 13 12 11 12 -6z m-650 -107 c-3 -7 -5 -2 -5 12 0 14 2 19 5 13 2 -7 2
-19 0 -25z m466 -75 c-13 -2 -35 -2 -50 0 -16 2 -5 4 22 4 28 0 40 -2 28 -4z
m-318 -113 c-3 -5 -11 -10 -16 -10 -6 0 -7 5 -4 10 3 6 11 10 16 10 6 0 7 -4
4 -10z m62 -26 c-3 -3 -12 -4 -19 -1 -8 3 -5 6 6 6 11 1 17 -2 13 -5z m186 -1
c-7 -2 -21 -2 -30 0 -10 3 -4 5 12 5 17 0 24 -2 18 -5z m190 0 c-7 -2 -19 -2
-25 0 -7 3 -2 5 12 5 14 0 19 -2 13 -5z m-586 -25 c-3 -8 -6 -5 -6 6 -1 11 2
17 5 13 3 -3 4 -12 1 -19z m147 -4 c9 -22 -3 -37 -18 -25 -7 6 -17 7 -21 3 -5
-4 -5 -1 -1 6 4 7 12 9 18 6 7 -5 9 -1 5 9 -3 10 -2 17 2 17 5 0 12 -7 15 -16z
m0 -76 c3 -16 2 -28 -3 -28 -10 0 -21 47 -13 55 7 7 8 5 16 -27z m-64 -50 c9
-3 10 -7 3 -11 -12 -8 -43 18 -43 36 0 6 6 4 13 -5 6 -9 19 -18 27 -20z m680
-3 c0 -8 -2 -15 -4 -15 -2 0 -6 7 -10 15 -3 8 -1 15 4 15 6 0 10 -7 10 -15z
m-690 -39 c0 -11 -19 -15 -25 -6 -3 5 1 10 9 10 9 0 16 -2 16 -4z"/>
<path d="M3940 5769 c0 -194 -4 -287 -12 -302 -9 -19 -9 -20 3 -12 8 6 7 2 -3
-7 -39 -35 -181 -36 -220 -2 -21 19 -21 19 -9 -3 10 -19 9 -22 -4 -17 -9 4
-22 -1 -31 -12 -11 -14 -17 -15 -20 -6 -3 6 -11 9 -17 6 -8 -5 -8 -2 1 7 6 7
12 18 12 23 0 6 -4 5 -9 -3 -7 -10 -9 -7 -8 12 2 21 5 23 17 14 8 -6 6 -1 -5
11 -11 13 -21 19 -23 13 -2 -6 -8 -9 -13 -5 -5 3 -9 -6 -9 -20 0 -14 5 -26 10
-26 6 0 10 -9 10 -20 0 -23 27 -81 42 -91 5 -3 9 -10 8 -15 -1 -5 14 -17 32
-26 27 -14 44 -16 86 -9 28 4 52 5 52 1 0 -4 15 -5 33 -2 17 3 50 6 72 6 22 1
46 8 53 16 9 10 11 10 7 2 -6 -11 -3 -12 13 -3 30 16 36 30 20 48 -12 15 -11
15 10 4 12 -6 23 -10 23 -9 6 14 5 76 -1 73 -16 -10 -17 20 -2 38 15 16 14 17
-1 11 -18 -7 -20 1 -17 71 1 22 6 46 12 52 6 7 8 22 5 33 -3 10 1 24 9 31 8 6
14 7 14 2 0 -5 6 -10 14 -10 8 0 14 7 14 16 0 9 1 67 2 129 l2 112 209 0 209
0 -1 48 c-1 29 -4 36 -6 20 -2 -16 -9 -28 -14 -28 -6 0 -8 4 -4 9 3 5 -5 13
-17 17 -21 6 -20 7 12 24 l33 17 -29 10 c-19 6 -39 7 -57 0 -24 -8 -34 -5 -58
12 -26 20 -40 21 -215 21 -103 0 -185 -2 -182 -5 2 -3 25 -5 51 -6 26 -1 47
-6 47 -11 0 -4 -3 -7 -7 -7 -29 5 -73 -3 -68 -11 9 -14 -7 -12 -31 4 -20 14
-20 13 -22 -72 -1 -66 1 -83 10 -74 7 7 12 37 11 70 -1 41 1 50 7 32 4 -14 8
-37 9 -52 1 -16 10 -37 22 -49 11 -11 19 -23 16 -25 -2 -2 -10 2 -17 11 -7 8
-17 15 -23 15 -7 0 -7 -4 1 -12 16 -16 15 -28 -3 -28 -8 0 -15 5 -15 10 0 6
-4 10 -10 10 -5 0 -11 -44 -13 -97 -1 -54 -4 -12 -5 94 -2 175 0 192 16 196
13 4 11 5 -5 6 l-23 1 0 -281z m270 267 c0 -11 -19 -15 -25 -6 -3 5 1 10 9 10
9 0 16 -2 16 -4z m164 -5 c3 -5 -1 -12 -10 -15 -10 -4 -13 -2 -8 6 5 8 -7 9
-44 4 -29 -4 -52 -3 -52 2 0 12 107 15 114 3z m-87 -117 c-3 -3 -12 -4 -19 -1
-8 3 -5 6 6 6 11 1 17 -2 13 -5z m206 -1 c-7 -2 -19 -2 -25 0 -7 3 -2 5 12 5
14 0 19 -2 13 -5z m-398 -43 c3 -5 1 -10 -4 -10 -6 0 -11 5 -11 10 0 6 2 10 4
10 3 0 8 -4 11 -10z m5 -45 c0 -14 -2 -25 -4 -25 -2 0 -6 11 -8 25 -3 14 -1
25 3 25 5 0 9 -11 9 -25z m-113 -27 c-3 -8 -6 -5 -6 6 -1 11 2 17 5 13 3 -3 4
-12 1 -19z m-30 -220 c-3 -7 -5 -2 -5 12 0 14 2 19 5 13 2 -7 2 -19 0 -25z
m63 -84 c0 -27 4 -43 10 -39 6 3 10 1 10 -5 0 -6 -8 -10 -17 -8 -10 2 -17 9
-16 15 2 7 -7 10 -20 8 -22 -4 -22 -4 -2 11 16 12 17 16 6 23 -10 7 -10 10 -1
16 9 6 9 10 -1 16 -10 6 -8 9 9 9 20 0 22 -5 22 -46z m-339 -88 c-9 -10 -8
-16 4 -26 8 -7 12 -17 8 -22 -3 -6 -11 0 -19 13 -11 22 -4 49 13 49 3 0 0 -6
-6 -14z m249 8 c0 -8 -19 -13 -24 -6 -3 5 1 9 9 9 8 0 15 -2 15 -3z m-280 -34
c0 -5 -2 -10 -4 -10 -3 0 -8 5 -11 10 -3 6 -1 10 4 10 6 0 11 -4 11 -10z m407
-9 c-1 -15 -4 -17 -14 -9 -15 12 -17 22 -3 13 6 -3 10 -1 10 4 0 6 2 11 4 11
3 0 4 -9 3 -19z m-32 -40 c3 -5 2 -12 -3 -15 -5 -3 -9 1 -9 9 0 17 3 19 12 6z"/>
<path d="M4418 6043 c12 -2 30 -2 40 0 9 3 -1 5 -23 4 -22 0 -30 -2 -17 -4z"/>
<path d="M4728 6044 c-5 -5 -26 -10 -49 -13 -4 -1 -18 -13 -32 -27 -25 -25
-28 -44 -6 -44 6 0 7 4 4 10 -3 6 1 7 10 3 9 -3 13 -9 8 -12 -17 -13 -12 -29
8 -24 15 4 22 0 26 -16 5 -20 10 -21 184 -21 207 0 190 2 207 -19 8 -9 11 -10
7 -4 -4 9 -1 11 10 7 10 -4 14 -13 10 -22 -3 -9 -3 -13 1 -9 5 4 13 -1 18 -12
12 -22 6 -323 -7 -356 -5 -11 -1 -8 8 8 21 37 29 35 10 -3 -9 -16 -20 -30 -25
-30 -19 0 -25 -2 -45 -16 -11 -8 -45 -14 -82 -14 -34 0 -64 -4 -67 -9 -4 -5
-21 -8 -39 -6 -17 2 -67 7 -111 11 -62 6 -84 12 -108 32 -16 13 -32 22 -35 18
-4 -3 0 -6 8 -6 12 0 12 -2 -1 -10 -9 -6 -17 -5 -22 3 -5 7 -6 0 -4 -16 4 -23
2 -26 -8 -18 -7 6 -15 9 -17 6 -3 -2 -6 19 -7 47 -2 61 -11 77 -14 22 -1 -25
-4 -14 -8 31 l-6 70 -2 -72 c-1 -48 2 -73 9 -73 7 0 10 -12 7 -30 -3 -16 -1
-30 3 -30 3 0 12 -12 18 -28 15 -36 68 -92 89 -93 81 -6 459 -2 455 5 -4 5 5
6 19 3 19 -5 27 -3 30 11 6 22 -1 42 -13 42 -6 0 -8 -4 -5 -8 3 -5 -1 -9 -8
-9 -7 0 -13 6 -13 13 0 7 4 11 8 8 4 -2 9 2 12 8 3 10 7 10 20 -1 9 -7 15 -17
12 -21 -3 -4 1 -13 9 -19 20 -17 45 14 26 32 -10 10 -12 9 -7 -5 11 -31 -9
-28 -20 3 -9 24 -9 28 0 21 7 -5 21 -6 32 -2 11 4 25 5 32 3 7 -3 10 5 9 20
-2 17 1 24 9 21 27 -11 36 50 31 221 -3 109 -2 165 4 155 8 -13 10 -12 10 3 0
9 -5 17 -11 17 -8 0 -10 14 -6 42 6 43 -22 118 -44 118 -6 0 -7 -6 -3 -12 6
-10 3 -9 -8 0 -9 8 -15 19 -12 26 3 7 -4 20 -14 29 -15 14 -19 14 -19 2 0 -8
4 -12 9 -9 4 3 8 0 8 -5 0 -15 -11 -13 -35 5 -17 13 -18 16 -5 24 11 7 5 8
-20 5 -24 -4 -29 -3 -15 3 16 8 15 10 -14 15 -41 8 -405 9 -413 1z m80 -11
c-10 -2 -26 -2 -35 0 -10 3 -2 5 17 5 19 0 27 -2 18 -5z m243 -3 c-36 -9 -179
-6 -188 4 -4 3 45 6 108 5 80 -1 104 -3 80 -9z m72 3 c-7 -2 -19 -2 -25 0 -7
3 -2 5 12 5 14 0 19 -2 13 -5z m-439 -49 c3 -8 2 -12 -4 -9 -6 3 -10 10 -10
16 0 14 7 11 14 -7z m613 -116 c-3 -8 -6 -5 -6 6 -1 11 2 17 5 13 3 -3 4 -12
1 -19z m-140 -245 c-2 -32 -3 -8 -3 52 0 61 1 87 3 58 2 -29 2 -78 0 -110z
m-497 -179 c0 -8 -5 -12 -10 -9 -6 4 -8 11 -5 16 9 14 15 11 15 -7z m-8 -46
c-6 -6 -8 -17 -5 -24 3 -8 1 -14 -5 -14 -5 0 -13 7 -16 16 -7 19 12 47 26 38
6 -4 6 -10 0 -16z m508 6 c0 -8 -5 -12 -10 -9 -6 4 -8 11 -5 16 9 14 15 11 15
-7z"/>
<path d="M3650 5920 c0 -23 -18 -27 -26 -5 -4 8 -10 15 -14 15 -12 0 -18 -44
-9 -66 7 -18 8 -18 15 4 9 30 27 23 35 -14 5 -21 7 -14 8 29 0 31 -1 57 -4 57
-3 0 -5 -9 -5 -20z"/>
<path d="M4602 5914 c-11 -12 -8 -14 20 -13 18 0 26 3 18 6 -8 3 -17 9 -20 13
-3 4 -11 2 -18 -6z"/>
<path d="M2766 5897 c3 -10 9 -15 12 -12 3 3 0 11 -7 18 -10 9 -11 8 -5 -6z"/>
<path d="M3650 5800 c-2 -14 -3 -31 -3 -37 1 -23 -15 -14 -21 12 -12 47 -23
25 -15 -31 7 -54 19 -85 19 -50 0 9 5 14 10 11 6 -3 10 -50 10 -105 0 -54 3
-101 8 -103 4 -3 6 45 4 106 -3 156 -8 226 -12 197z"/>
<path d="M4304 5799 c-4 -7 -2 -15 4 -17 7 -2 10 -8 7 -13 -4 -5 -2 -17 4 -26
8 -14 10 -10 7 19 -3 43 -10 55 -22 37z"/>
<path d="M4340 5756 c0 -10 4 -15 8 -12 4 2 14 1 22 -4 11 -7 10 -11 -4 -25
-13 -13 -14 -20 -5 -31 10 -12 9 -13 -6 -8 -15 6 -17 3 -13 -24 2 -17 1 -29
-3 -26 -4 2 -9 1 -12 -3 -2 -5 -2 -2 -1 5 2 6 -1 12 -6 12 -6 0 -10 -45 -9
-115 2 -107 3 -114 19 -100 15 14 16 12 12 -18 -3 -17 -7 -26 -9 -19 -12 33
-23 5 -22 -55 0 -38 3 -63 5 -57 3 7 32 9 84 6 76 -4 80 -4 80 17 0 11 -5 21
-10 21 -7 0 -7 6 -1 18 8 14 6 19 -5 19 -7 0 -14 -9 -14 -20 0 -11 -3 -17 -7
-14 -9 10 -5 109 9 205 10 71 9 85 -3 92 -10 7 -11 12 -2 21 14 14 6 39 -13
39 -8 0 -14 5 -14 11 0 6 -8 8 -17 5 -12 -4 -9 1 7 15 l25 21 7 -23 7 -24 -2
25 c-2 20 -9 26 -39 31 -20 3 -44 11 -52 19 -13 10 -16 10 -16 -4z m80 -284
c0 -5 -7 -9 -15 -9 -8 0 -12 4 -9 9 3 4 9 8 15 8 5 0 9 -4 9 -8z m-42 -64 c1
-28 -1 -30 -9 -15 -6 10 -8 25 -5 33 9 22 13 17 14 -18z"/>
<path d="M5760 5686 c0 -72 3 -86 18 -91 9 -3 62 -69 116 -145 l100 -140 123
0 c68 0 123 4 123 8 0 4 -42 64 -94 132 -52 69 -92 128 -89 132 2 5 40 8 84 8
l79 0 0 90 0 90 -230 0 -230 0 0 -84z"/>
<path d="M5321 5744 c0 -11 3 -14 6 -6 3 7 2 16 -1 19 -3 4 -6 -2 -5 -13z"/>
<path d="M4311 5694 c0 -11 3 -14 6 -6 3 7 2 16 -1 19 -3 4 -6 -2 -5 -13z"/>
<path d="M4608 5589 c-1 -34 0 -63 5 -66 4 -2 7 25 7 61 0 36 -2 66 -4 66 -2
0 -6 -27 -8 -61z"/>
<path d="M4551 5624 c0 -11 3 -14 6 -6 3 7 2 16 -1 19 -3 4 -6 -2 -5 -13z"/>
<path d="M3655 5450 c-3 -5 -1 -10 4 -10 6 0 11 5 11 10 0 6 -2 10 -4 10 -3 0
-8 -4 -11 -10z"/>
<path d="M4077 5419 c4 -13 8 -18 11 -10 2 7 -1 18 -6 23 -8 8 -9 4 -5 -13z"/>
<path d="M7665 5115 c-44 -43 -28 -74 53 -100 36 -11 52 -22 52 -34 0 -40 -56
-55 -97 -26 -15 11 -24 12 -28 4 -12 -18 11 -32 62 -36 54 -4 78 9 87 48 9 35
-5 49 -65 69 -45 15 -54 23 -54 42 0 19 6 23 38 26 21 2 44 -1 51 -7 12 -11
26 -5 26 10 0 9 -56 29 -82 29 -10 0 -30 -11 -43 -25z"/>
<path d="M8744 5130 c-37 -15 -64 -59 -64 -106 0 -34 6 -48 31 -73 34 -35 90
-42 125 -17 27 21 14 27 -28 14 -31 -9 -41 -8 -63 6 -51 33 -57 94 -15 136 21
21 84 28 95 10 7 -11 25 -4 25 10 0 8 -55 30 -74 29 -6 0 -21 -4 -32 -9z"/>
<path d="M8187 5038 c-21 -51 -41 -99 -44 -105 -3 -7 1 -13 9 -13 7 0 19 14
25 30 10 28 15 30 62 30 46 0 52 -3 66 -30 14 -27 35 -41 35 -22 0 4 -18 51
-41 105 -29 68 -46 97 -58 97 -12 0 -28 -28 -54 -92z m87 -16 c7 -20 4 -22
-28 -22 -19 0 -37 3 -39 8 -2 4 5 27 16 51 l19 45 13 -30 c7 -17 16 -40 19
-52z"/>
<path d="M7957 4953 c-13 -12 -7 -33 8 -33 8 0 15 9 15 20 0 20 -11 26 -23 13z"/>
<path d="M8484 4949 c-10 -17 13 -36 27 -22 12 12 4 33 -11 33 -5 0 -12 -5
-16 -11z"/>
</g>
</svg>
